<?xml version="1.0" standalone="no"?>
<!DOCTYPE svg PUBLIC "-//W3C//DTD SVG 20010904//EN"
 "http://www.w3.org/TR/2001/REC-SVG-20010904/DTD/svg10.dtd">
<svg version="1.0" xmlns="http://www.w3.org/2000/svg"
 width="260.000000pt" height="260.000000pt" viewBox="0 0 260.000000 260.000000"
 preserveAspectRatio="xMidYMid meet">
<metadata>
Created by potrace 1.14, written by Peter Selinger 2001-2017
</metadata>
<g transform="translate(0.000000,260.000000) scale(0.100000,-0.100000)"
fill="#000000" stroke="none">
<path d="M745 1335 c0 -467 4 -856 8 -862 5 -7 16 -13 25 -13 15 0 15 2 2 10
-18 11 -17 46 5 200 23 165 43 337 55 475 14 174 12 556 -5 730 -20 207 -21
196 14 184 17 -6 35 -17 42 -25 24 -29 41 -335 35 -639 -6 -349 -39 -755 -67
-843 -14 -43 1 -62 50 -62 20 0 43 -5 51 -10 12 -8 10 -10 -10 -10 -16 0 -21
-3 -14 -10 7 -7 54 -10 120 -8 l109 3 0 375 0 375 315 6 c173 4 348 7 388 8
l72 1 0 75 0 75 -28 0 c-16 0 -53 -5 -83 -11 -64 -13 -412 3 -494 22 -80 19
-32 27 189 31 159 3 199 7 206 18 8 13 -24 15 -233 18 -170 2 -264 -2 -313
-11 -102 -19 -151 0 -180 70 -16 37 -20 279 -5 302 13 21 46 4 67 -34 10 -19
24 -35 31 -35 10 0 13 -24 13 -89 0 -106 9 -134 47 -149 17 -6 162 -13 361
-16 234 -4 338 -9 352 -18 12 -8 20 -26 22 -53 4 -43 7 -38 31 38 18 59 13 63
-76 53 -71 -8 -651 -8 -673 1 -7 3 -11 9 -8 14 3 5 0 17 -6 26 -9 15 -10 14
-4 -6 4 -16 3 -21 -5 -17 -7 5 -10 44 -9 109 1 63 4 87 7 62 4 -28 7 -9 11 65
l5 105 443 0 442 0 0 83 c0 65 -3 82 -15 82 -11 0 -14 10 -11 42 2 23 9 44 15
46 15 5 14 62 -1 62 -7 0 -301 1 -653 2 l-640 3 0 -850z m1181 824 c33 -9 49
-19 59 -40 18 -34 19 -76 3 -82 -10 -4 -9 -8 2 -16 18 -14 -119 -11 -439 9
-248 16 -251 28 -7 36 268 8 301 15 236 49 -26 14 -87 15 -464 13 -322 -2
-432 -6 -425 -14 10 -13 2 -44 -12 -44 -4 0 -6 7 -3 15 3 8 -6 26 -20 40 -14
14 -26 28 -26 30 0 3 154 6 343 8 188 1 424 3 525 5 111 1 201 -2 228 -9z
m-795 -262 c-11 -28 -26 -33 -49 -18 -21 13 -10 44 17 48 14 2 27 6 30 9 11
10 12 -13 2 -39z m17 -628 c11 0 12 -2 5 -6 -7 -2 -13 -11 -13 -19 0 -16 -45
-19 -55 -4 -9 15 15 42 32 35 8 -3 22 -5 31 -6z m627 0 c4 -6 5 -12 2 -15 -8
-8 -87 8 -81 17 7 13 72 11 79 -2z m-702 -29 c3 -11 1 -20 -4 -20 -5 0 -9 9
-9 20 0 11 2 20 4 20 2 0 6 -9 9 -20z m-35 -92 c7 -7 12 -22 12 -34 0 -29 16
-39 35 -24 13 11 15 3 15 -56 1 -38 2 -151 4 -251 3 -181 3 -183 -18 -183 -13
0 -42 21 -71 50 l-49 49 12 221 c6 121 14 224 17 230 8 14 28 13 43 -2z m-4
-614 c25 -24 19 -37 -8 -17 -13 10 -22 21 -19 26 6 10 10 9 27 -9z"/>
</g>
</svg>
